<svg width="44" height="15" viewBox="0 0 44 15" fill="none" xmlns="http://www.w3.org/2000/svg">
<path fill-rule="evenodd" clip-rule="evenodd" d="M40.9915 8.26345L40.9915 8.26345L0.923956 8.26345L0.923956 7.96345L41.7279 7.96345L35.6244 13.9259L36.2946 14.5806L43.2167 7.81867C43.2869 7.75004 43.411 7.6215 43.5206 7.50672L43.5268 7.50016L43.5172 7.48972C43.4072 7.37069 43.2848 7.24028 43.2167 7.1737L39.7775 3.81409L39.7618 3.81409L36.2868 0.419409L35.6165 1.07419L41.7201 7.03659L0.924055 7.0366L0.924055 6.7366L40.9836 6.73659L40.9837 6.73659L35.1872 1.07419L36.2868 3.50548e-05L39.884 3.51409L39.8841 3.51409L36.2868 2.17033e-05L36.2868 3.50548e-05L36.2868 2.17033e-05L35.1872 1.07419L40.9836 6.73659L0.923956 6.73659L0.923956 7.96345L0.917746 7.96345L0.916201 8.26345L40.9915 8.26345L35.195 13.9259L36.2946 15L36.2947 15L36.2947 15L43.4263 8.03327L43.4263 8.03327C43.5756 7.88749 43.9369 7.50386 43.9369 7.50386C43.9369 7.50386 43.5756 7.10488 43.4263 6.9591L39.8998 3.51409L39.8998 3.51409L43.4263 6.9591C43.5756 7.10488 43.9369 7.50386 43.9369 7.50386C43.9369 7.50386 43.5756 7.88749 43.4263 8.03327L36.2947 15L35.1951 13.9259L38.9258 10.2814L40.9915 8.26345Z" fill="#F5F5F3"/>
</svg>
