<svg width="43" height="15" viewBox="0 0 43 15" fill="none" xmlns="http://www.w3.org/2000/svg">
<path fill-rule="evenodd" clip-rule="evenodd" d="M2.77441 6.73659L2.77444 6.73659L42.842 6.73659L42.842 7.03658L2.03802 7.03659L8.14158 1.07418L7.4713 0.419403L0.549252 7.18137C0.479 7.25 0.354965 7.37854 0.245361 7.49332L0.239105 7.49987L0.248749 7.51032C0.358704 7.62934 0.481091 7.75976 0.549252 7.82634L3.9884 11.1859L4.00411 11.1859L7.47916 14.5806L8.14944 13.9258L2.04588 7.96344L42.8419 7.96343L42.8419 8.26343L2.7823 8.26344L2.78227 8.26344L8.57873 13.9258L7.47914 15L3.8819 11.4859L3.88187 11.4859L7.47913 15L7.47914 15L7.47916 15L8.57876 13.9258L2.7823 8.26344L42.842 8.26344L42.842 7.03658L42.8482 7.03658L42.8497 6.73658L2.77444 6.73659L8.5709 1.07418L7.4713 1.57225e-05L7.47129 2.87652e-05L7.47127 1.57225e-05L0.339615 6.96677L0.339607 6.96677C0.278262 7.02669 0.181082 7.12681 0.0878945 7.22396C0.181084 7.12681 0.278269 7.0267 0.339615 6.96677L7.47129 2.87652e-05L8.57087 1.07418L4.84009 4.71869L2.77441 6.73659ZM0.339607 8.04094L3.86616 11.4859L3.86619 11.4859L0.339607 8.04094Z" fill="#F5F5F3"/>
</svg>
