<svg width="15" height="10" viewBox="0 0 15 10" fill="none" xmlns="http://www.w3.org/2000/svg">
<mask id="path-1-inside-1" fill="white">
<path d="M14.4998 5.77198L10.101 5.77198L2.26258 5.81264L5.59591 9.16659L4.75753 10L-4.40783e-05 5.21299L4.83834 0.344676L5.67672 1.18825L2.27268 4.61335L9.50501 4.58286L14.4998 4.58286"/>
</mask>
<path d="M14.4998 5.77198L10.101 5.77198L2.26258 5.81264L5.59591 9.16659L4.75753 10L-4.40783e-05 5.21299L4.83834 0.344676L5.67672 1.18825L2.27268 4.61335L9.50501 4.58286L14.4998 4.58286" fill="#030303"/>
<path d="M10.101 5.77198L10.0999 5.57198L10.101 5.57198L10.101 5.77198ZM2.26258 5.81264L2.12072 5.95362L1.7843 5.61512L2.26154 5.61264L2.26258 5.81264ZM5.59591 9.16659L5.73777 9.02561L5.87874 9.16745L5.73691 9.30844L5.59591 9.16659ZM4.75753 10L4.89853 10.1418L4.75667 10.2829L4.61567 10.141L4.75753 10ZM-4.40783e-05 5.21299L-0.141901 5.35398L-0.282019 5.21299L-0.141901 5.07201L-4.40783e-05 5.21299ZM4.83834 0.344676L4.69648 0.203692L4.83834 0.0609574L4.9802 0.203692L4.83834 0.344676ZM5.67672 1.18825L5.81858 1.04726L5.9587 1.18825L5.81858 1.32923L5.67672 1.18825ZM2.27268 4.61335L2.27353 4.81334L1.78991 4.81538L2.13083 4.47236L2.27268 4.61335ZM9.50501 4.58286L9.50416 4.38286L9.50501 4.38286L9.50501 4.58286ZM14.4998 5.97198L10.101 5.97198L10.101 5.57198L14.4998 5.57198L14.4998 5.97198ZM10.102 5.97198L2.26362 6.01264L2.26154 5.61264L10.0999 5.57199L10.102 5.97198ZM2.40444 5.67165L5.73777 9.02561L5.45406 9.30758L2.12072 5.95362L2.40444 5.67165ZM5.73691 9.30844L4.89853 10.1418L4.61653 9.85816L5.45492 9.02475L5.73691 9.30844ZM4.61567 10.141L-0.141901 5.35398L0.141813 5.07201L4.89939 9.85902L4.61567 10.141ZM-0.141901 5.07201L4.69648 0.203692L4.9802 0.485661L0.141813 5.35398L-0.141901 5.07201ZM4.9802 0.203692L5.81858 1.04726L5.53487 1.32923L4.69648 0.485661L4.9802 0.203692ZM5.81858 1.32923L2.41454 4.75433L2.13083 4.47236L5.53487 1.04726L5.81858 1.32923ZM2.27184 4.41335L9.50416 4.38286L9.50585 4.78285L2.27353 4.81334L2.27184 4.41335ZM9.50501 4.38286L14.4998 4.38286L14.4998 4.78286L9.50501 4.78286L9.50501 4.38286Z" fill="#FFFEFC" mask="url(#path-1-inside-1)"/>
</svg>
