<svg width="12" height="14" viewBox="0 0 12 14" fill="none" xmlns="http://www.w3.org/2000/svg">
<path d="M10.1766 2.07168C8.7047 0.599805 6.30783 0.599805 4.83751 2.07168L0.75939 6.14668C0.732827 6.17324 0.718764 6.20918 0.718764 6.24668C0.718764 6.28418 0.732827 6.32012 0.75939 6.34668L1.33595 6.92324C1.36231 6.94948 1.39798 6.96421 1.43517 6.96421C1.47236 6.96421 1.50804 6.94948 1.53439 6.92324L5.61251 2.84824C6.11876 2.34199 6.7922 2.06387 7.50783 2.06387C8.22345 2.06387 8.89689 2.34199 9.40158 2.84824C9.90783 3.35449 10.186 4.02793 10.186 4.74199C10.186 5.45762 9.90783 6.12949 9.40158 6.63574L5.24533 10.7904L4.57189 11.4639C3.9422 12.0936 2.91876 12.0936 2.28908 11.4639C1.98439 11.1592 1.8172 10.7545 1.8172 10.3232C1.8172 9.89199 1.98439 9.4873 2.28908 9.18262L6.41251 5.06074C6.5172 4.95762 6.6547 4.8998 6.80158 4.8998H6.80314C6.95001 4.8998 7.08595 4.95762 7.18908 5.06074C7.29376 5.16543 7.35001 5.30293 7.35001 5.4498C7.35001 5.59512 7.2922 5.73262 7.18908 5.83574L3.81876 9.20293C3.7922 9.22949 3.77814 9.26543 3.77814 9.30293C3.77814 9.34043 3.7922 9.37637 3.81876 9.40293L4.39533 9.97949C4.42168 10.0057 4.45736 10.0205 4.49455 10.0205C4.53173 10.0205 4.56741 10.0057 4.59376 9.97949L7.96251 6.61074C8.27345 6.2998 8.44376 5.8873 8.44376 5.44824C8.44376 5.00918 8.27189 4.59512 7.96251 4.28574C7.32033 3.64355 6.27658 3.64512 5.63439 4.28574L5.23439 4.6873L1.51251 8.40762C1.25991 8.65874 1.05967 8.95752 0.923413 9.28663C0.787158 9.61573 0.717597 9.96861 0.718764 10.3248C0.718764 11.0482 1.00158 11.7279 1.51251 12.2389C2.0422 12.767 2.73595 13.0311 3.4297 13.0311C4.12345 13.0311 4.8172 12.767 5.34533 12.2389L10.1766 7.41074C10.8875 6.69824 11.2813 5.7498 11.2813 4.74199C11.2828 3.73262 10.8891 2.78418 10.1766 2.07168Z" fill="#1C1C1C"/>
</svg>
