<svg width="14" height="11" viewBox="0 0 14 11" fill="none" xmlns="http://www.w3.org/2000/svg">
<path d="M13.9072 1.21766C13.4203 1.42416 12.9016 1.56104 12.3608 1.6275C12.9172 1.30627 13.3418 0.801485 13.5414 0.193053C13.0227 0.492126 12.45 0.703376 11.8396 0.821265C11.3471 0.314106 10.6451 0 9.8793 0C8.3935 0 7.19733 1.16623 7.19733 2.59592C7.19733 2.80164 7.21533 2.99944 7.25951 3.18774C5.02836 3.08251 3.05411 2.04841 1.72785 0.473137C1.49631 0.861616 1.36049 1.30627 1.36049 1.78495C1.36049 2.68375 1.83912 3.48049 2.55257 3.94175C2.12139 3.93384 1.6984 3.81279 1.34004 3.62211C1.34004 3.63002 1.34004 3.64031 1.34004 3.65059C1.34004 4.91177 2.2703 5.95931 3.49019 6.20063C3.27174 6.25839 3.03365 6.28608 2.78656 6.28608C2.61475 6.28608 2.4413 6.27658 2.27848 6.24177C2.6262 7.26954 3.61292 8.02513 4.78618 8.04966C3.8731 8.74038 2.71375 9.15655 1.45867 9.15655C1.23858 9.15655 1.02749 9.14705 0.816406 9.12094C2.00521 9.8623 3.4141 10.2856 4.93345 10.2856C9.87193 10.2856 12.5719 6.32959 12.5719 2.90054C12.5719 2.78581 12.5678 2.67504 12.5621 2.56507C13.0947 2.19953 13.5423 1.74301 13.9072 1.21766Z" fill="#1C1C1C"/>
</svg>
