<svg width="15" height="11" viewBox="0 0 15 11" fill="none" xmlns="http://www.w3.org/2000/svg">
<path d="M14.8164 1.30223C14.2958 1.52308 13.741 1.66946 13.1627 1.74054C13.7577 1.397 14.2118 0.857154 14.4253 0.206462C13.8705 0.526308 13.258 0.752231 12.6053 0.878308C12.0785 0.335923 11.3278 0 10.5088 0C8.91978 0 7.64053 1.24723 7.64053 2.77623C7.64053 2.99623 7.65978 3.20777 7.70703 3.40915C5.32091 3.29662 3.20953 2.19069 1.79116 0.506C1.54353 0.921462 1.39828 1.397 1.39828 1.90892C1.39828 2.87015 1.91016 3.72223 2.67316 4.21554C2.21203 4.20708 1.75966 4.07762 1.37641 3.87369C1.37641 3.88215 1.37641 3.89315 1.37641 3.90415C1.37641 5.25292 2.37128 6.37323 3.67591 6.63131C3.44228 6.69308 3.18766 6.72269 2.92341 6.72269C2.73966 6.72269 2.55416 6.71254 2.38003 6.67531C2.75191 7.77446 3.80716 8.58254 5.06191 8.60877C4.08541 9.34746 2.84553 9.79254 1.50328 9.79254C1.26791 9.79254 1.04216 9.78238 0.816406 9.75446C2.08778 10.5473 3.59453 11 5.21941 11C10.5009 11 13.3884 6.76923 13.3884 3.102C13.3884 2.97931 13.384 2.86085 13.3779 2.74323C13.9475 2.35231 14.4262 1.86408 14.8164 1.30223Z" fill="white"/>
</svg>
